<svg width="23" height="23" viewBox="0 0 23 23" fill="none" xmlns="http://www.w3.org/2000/svg">
<g clip-path="url(#clip0_2037_15)">
<path d="M0.86251 12.0345C0.974815 12.331 1.30724 12.6769 1.60821 12.8161L1.81935 12.915L9.74806 12.9374L17.6768 12.9599L14.2717 15.8484C12.4029 17.4386 10.8217 18.8042 10.7588 18.8851C10.5611 19.1456 10.4938 19.3613 10.4938 19.7431C10.4938 20.1699 10.5881 20.4169 10.8666 20.7224C11.3428 21.2345 12.2053 21.3154 12.7533 20.8976C13.1891 20.5697 21.2975 13.6652 21.4637 13.4855C21.7242 13.2025 21.9848 12.7577 22.1106 12.3759C22.2588 11.9222 22.2588 11.0777 22.1106 10.6284C21.8186 9.76595 21.9668 9.9097 17.0973 5.77239C14.7119 3.74642 12.6635 2.03939 12.5467 1.97649C12.3805 1.89114 12.2502 1.8597 11.9672 1.85071C11.6438 1.83275 11.5674 1.84622 11.3248 1.95403C11.0104 2.09778 10.7318 2.37181 10.5881 2.68626C10.4399 3.0097 10.4488 3.58021 10.6106 3.89017C10.6734 4.01146 10.7858 4.17767 10.8576 4.24954C10.925 4.32142 12.4883 5.6556 14.3301 7.20989L17.6768 10.04L9.74806 10.0624L1.81935 10.0849L1.59474 10.1972C0.90294 10.5341 0.588487 11.3247 0.86251 12.0345Z" fill="white"/>
</g>
<defs>
<clipPath id="clip0_2037_15">
<rect width="23" height="23" fill="white" transform="translate(0 23) rotate(-90)"/>
</clipPath>
</defs>
</svg>
