<svg width="31" height="30" viewBox="0 0 31 30" fill="none" xmlns="http://www.w3.org/2000/svg">
<path d="M14.0129 0.0653763C12.1086 0.247017 10.4211 0.733345 8.70427 1.58881C7.18083 2.34467 6.06755 3.14741 4.80779 4.38374C3.60662 5.57319 2.73943 6.77436 1.96599 8.3271C0.132006 12.0068 -0.114088 16.1787 1.26287 20.0693C1.77849 21.5107 2.80388 23.3271 3.74138 24.4638C5.15349 26.163 6.77654 27.4521 8.70427 28.413C10.9894 29.5497 13.4211 30.083 15.9054 29.9833C18.1379 29.8896 20.0773 29.3974 22.0519 28.413C24.4308 27.2353 26.4054 25.4892 27.8879 23.2626C28.3976 22.4951 29.1593 20.9951 29.4699 20.1337C30.4953 17.333 30.6418 14.1103 29.8801 11.2099C29.5929 10.1201 29.341 9.4521 28.7961 8.35053C28.0343 6.80952 27.2316 5.69038 25.9953 4.43061C22.884 1.27827 18.3957 -0.356499 14.0129 0.0653763ZM10.2043 7.20795C10.3918 7.27827 13.2336 10.0849 13.3625 10.3251C13.5617 10.706 13.5207 10.7763 12.4543 11.8603C11.9152 12.4111 11.423 12.9501 11.3703 13.0498C11.1476 13.4892 11.1945 14.0107 11.4933 14.4619C12.4718 15.915 15.05 18.4052 16.2394 19.0439C16.509 19.1904 17.0422 19.2021 17.3586 19.0732C17.4933 19.0146 17.9504 18.6103 18.5422 18.0185C19.5207 17.0458 19.673 16.9404 19.9953 17.0224C20.1945 17.0693 23.0715 19.9169 23.2062 20.204C23.382 20.579 23.1828 20.8955 22.2511 21.7099C21.2551 22.583 20.1476 22.9521 19.0109 22.7939C17.4816 22.583 14.9679 21.3408 13.1515 19.8876C12.4718 19.3427 10.8078 17.6728 10.2687 16.9931C9.04997 15.4638 7.99529 13.5126 7.60857 12.1005C7.36247 11.1923 7.46794 10.2431 7.91912 9.31733C8.16521 8.81928 8.26482 8.68452 8.95037 7.98725C9.36638 7.55952 9.76482 7.2021 9.83513 7.19038C9.89958 7.17866 9.97576 7.16108 9.99919 7.15522C10.0226 7.15522 10.1105 7.17866 10.2043 7.20795Z" fill="#FF9F0F"/>
</svg>
