<svg width="81" height="80" viewBox="0 0 81 80" fill="none" xmlns="http://www.w3.org/2000/svg">
<g clip-path="url(#clip0_2153_164)">
<path d="M25.9063 7.1874C24.2657 8.28115 23.0782 10.078 22.8438 11.828C22.5782 13.7811 23.0157 15.2811 24.5938 17.7968C25.7188 19.6249 25.75 20.6249 24.6875 21.7811L24.0782 22.4374L25.1875 24.3905C25.7969 25.453 26.3125 26.3593 26.3438 26.3905C26.4375 26.4843 27.5157 25.6093 28.2188 24.8749C29.9532 23.0624 30.5938 20.3593 29.8438 17.953C29.6875 17.4061 29.0782 16.1874 28.5157 15.2343C27.7344 13.9218 27.5 13.3749 27.5 12.9218C27.5 12.2186 27.8438 11.4843 28.2813 11.2499C28.4532 11.1561 28.5938 10.9999 28.5938 10.8905C28.5938 10.7811 28.1407 9.79677 27.6094 8.70302L26.6407 6.70302L25.9063 7.1874Z" fill="#FF9F0F"/>
<path d="M36.4843 6.90617C36.3124 6.99992 35.7968 7.39055 35.328 7.78117C32.6718 10.0312 32.203 13.6249 34.1561 16.7968C35.4061 18.828 35.6249 19.2812 35.6249 19.9687C35.6249 20.7655 35.453 21.1405 34.7499 21.8749L34.2343 22.4218L35.3124 24.2968C35.9061 25.328 36.4218 26.2343 36.453 26.328C36.5311 26.5468 37.2186 26.0624 38.1874 25.078C38.7186 24.5468 39.2499 23.7968 39.6405 23.0312C40.2186 21.828 40.2343 21.7812 40.2343 20.0155V18.203L39.578 16.8749C39.2186 16.1405 38.6718 15.1562 38.3593 14.6718C37.4374 13.2343 37.4374 12.2655 38.3436 11.3749L38.8749 10.8593L37.828 8.7968C36.8749 6.89055 36.7655 6.74992 36.4843 6.90617Z" fill="#FF9F0F"/>
<path d="M65.4375 26.3438C61.7344 27.2344 59.2187 30.9063 59.8281 34.5625C59.9375 35.1875 60.1562 36 60.3125 36.375L60.625 37.0781L58.4844 39.75C57.3125 41.2188 56.2969 42.5 56.2187 42.6094C56.1094 42.7344 56.2344 42.8281 56.6719 42.8906C60.8437 43.5781 65.1562 46.0938 67.625 49.2813C67.875 49.6094 68.0156 49.6875 68.1719 49.5625C68.2812 49.4688 69.0312 48.5469 69.8437 47.5156L71.3281 45.6406L71.875 45.75C72.1719 45.8125 72.9531 45.8594 73.5937 45.8438C77.3594 45.8125 80.4062 42.8906 80.7187 39.0156C80.8906 37 80.1875 35.0781 78.7344 33.5156C77.7031 32.4219 76.625 31.7813 75.1719 31.4063L74.1562 31.1406L73.6406 30.1406C72.6562 28.2656 70.5937 26.7031 68.4687 26.2656C67.4062 26.0469 66.5469 26.0625 65.4375 26.3438Z" fill="#FF9F0F"/>
<path d="M27.5781 33.0469C24.8906 33.4687 22.4531 34.25 19.9219 35.4687C12.5 39.0625 7.1875 45.75 5.39062 53.75C5.1875 54.6562 4.96875 55.9062 4.90625 56.5156L4.79688 57.6562H20.7656H36.7187L36.7969 57.2187C37.4531 54.0156 38.5781 51.5312 40.4219 49.2344C43.0937 45.8906 46.9844 43.6406 51.3125 42.9219L52.5469 42.7187L51.6719 41.75C47.6094 37.1875 42.1406 34.1719 36.0312 33.125C33.875 32.7656 29.6406 32.7187 27.5781 33.0469Z" fill="#FF9F0F"/>
<path d="M52.8125 47.4375C50.9687 47.75 50.3906 47.9062 49.3594 48.2969C46.4844 49.4062 43.9844 51.7031 42.5312 54.6094C42.0781 55.5156 41.5625 57.0312 41.5625 57.4531C41.5625 57.625 43.8125 57.6562 54 57.6562H66.4375L66.3281 57.0625C66.0156 55.3594 64.7812 53.0938 63.3125 51.5312C61.5469 49.6719 59.7969 48.5781 57.4531 47.9062C56.1875 47.5312 53.6875 47.2812 52.8125 47.4375Z" fill="#FF9F0F"/>
<path d="M0.78125 64.4061C0.78125 66.8749 1.04688 68.2811 1.73438 69.4686C2.32812 70.5311 3.48438 71.6874 4.5 72.2343C6.23438 73.1874 4.15625 73.1249 38.4375 73.1249C72.7344 73.1249 70.6406 73.1874 72.3906 72.2186C73.375 71.6874 74.6562 70.4061 75.2031 69.4218C75.8438 68.2186 76.0938 66.9061 76.0938 64.4843V62.3436H38.4375H0.78125V64.4061Z" fill="#FF9F0F"/>
</g>
<defs>
<clipPath id="clip0_2153_164">
<rect width="80" height="80" fill="white" transform="translate(0.78125)"/>
</clipPath>
</defs>
</svg>
