<svg width="90" height="90" viewBox="0 0 90 90" fill="none" xmlns="http://www.w3.org/2000/svg">
<path d="M19.7754 19.4238C19.4941 19.6875 19.3359 20.0566 19.3359 20.3906C19.3359 20.7246 19.4941 21.0938 19.7754 21.3574C20.127 21.7266 20.373 21.7969 21.2695 21.7969C22.166 21.7969 22.4121 21.7266 22.7637 21.3574C23.0449 21.0938 23.2031 20.7246 23.2031 20.3906C23.2031 20.0566 23.0449 19.6875 22.7637 19.4238C22.4121 19.0547 22.166 18.9844 21.2695 18.9844C20.373 18.9844 20.127 19.0547 19.7754 19.4238Z" fill="#FF9F0F"/>
<path d="M25.752 19.4238C25.4707 19.6875 25.3125 20.0566 25.3125 20.3906C25.3125 20.7246 25.4707 21.0938 25.752 21.3574C26.1738 21.7969 26.1738 21.7969 29.9004 21.7969C34.0137 21.7969 34.4707 21.8848 35.209 22.9219C35.4902 23.3262 35.5957 23.7129 35.5957 24.4336C35.5957 25.1543 35.4902 25.541 35.209 25.9453C34.3828 27.1055 34.6816 27.0703 23.3965 27.0703H13.166L12.7441 27.5098C12.2168 28.0195 12.1816 28.8106 12.6387 29.3731L12.9727 29.7949L20.2676 29.8828C27.2988 29.9707 27.5977 29.9883 28.0547 30.3398C28.9863 31.0254 29.2676 31.5879 29.2676 32.6953C29.2676 33.8027 28.9863 34.3652 28.0547 35.0508C27.6152 35.3848 27.2637 35.4199 23.7832 35.5078C20.0742 35.5957 20.0039 35.5957 19.6699 36.0176C18.9492 36.8965 19.582 38.3203 20.6895 38.3203C21.4277 38.3203 22.3418 38.8828 22.7109 39.5684C23.3438 40.7461 22.9395 42.1699 21.7617 42.8906C21.1992 43.2246 20.8477 43.2422 13.3066 43.2422H5.43164L5.00977 43.6816C4.42969 44.2441 4.42969 45.0527 5.00977 45.6152C5.43164 46.0547 5.43164 46.0547 9.14062 46.0547C13.2539 46.0547 13.623 46.125 14.2383 47.1621C14.6777 47.8828 14.6777 48.7969 14.2383 49.5176C13.6934 50.4316 13.3418 50.5371 10.248 50.625C7.1543 50.7129 6.92578 50.8008 6.08203 51.9258C5.73047 52.3828 5.71289 52.6641 5.66016 57.9375L5.60742 63.457L6.04688 63.8965L6.48633 64.3359H11.3906H16.3125L16.418 64.9336C16.6465 66.1113 17.7188 67.9395 18.7734 68.9414C22.1484 72.1582 27.0703 72.1582 30.4453 68.9414C31.5 67.9395 32.5723 66.1113 32.8008 64.9336L32.9062 64.3359H46.7578H60.6094L60.7148 64.9336C60.9434 66.1113 62.0156 67.9395 63.0703 68.9414C66.4453 72.1582 71.3672 72.1582 74.7422 68.9414C75.7969 67.9395 76.8691 66.1113 77.0977 64.9336L77.2031 64.3359H79.4883C80.7715 64.3359 82.1074 64.248 82.5117 64.125C83.4785 63.8438 84.9375 62.3848 85.2188 61.418C85.5176 60.3984 85.5176 46.8281 85.2188 45.8086C84.9375 44.8418 83.4785 43.3828 82.5117 43.1016C82.1074 42.9785 81.0352 42.8906 80.1387 42.8906H78.4863L75.9375 38.4609C73.1777 33.6621 72.7383 33.0469 71.6484 32.4668C70.9453 32.0977 70.7344 32.0801 64.4766 32.0273L58.0078 31.9746V25.9102V19.8457L57.5684 19.4238L57.1465 18.9844H41.6602H26.1738L25.752 19.4238ZM70.3652 34.9981C70.6465 35.1211 71.543 36.5098 73.1426 39.252C74.4434 41.502 75.498 43.4004 75.498 43.4883C75.498 43.5762 74.5137 44.0156 73.3008 44.4902L71.1035 45.3516H64.8281C61.3828 45.3516 58.4473 45.2988 58.2891 45.2461C58.043 45.1582 58.0078 44.5254 58.0078 39.9727V34.8047H63.9844C67.8867 34.8047 70.084 34.875 70.3652 34.9981ZM62.4902 48.252C62.7715 48.5156 62.9297 48.8848 62.9297 49.2188C62.9297 49.5527 62.7715 49.9219 62.4902 50.1855C62.1387 50.5547 61.8926 50.625 60.9961 50.625C60.0996 50.625 59.8535 50.5547 59.502 50.1855C59.2207 49.9219 59.0625 49.5527 59.0625 49.2188C59.0625 48.8848 59.2207 48.5156 59.502 48.252C59.8535 47.8828 60.0996 47.8125 60.9961 47.8125C61.8926 47.8125 62.1387 47.8828 62.4902 48.252ZM26.9121 57.8145C28.125 58.3945 28.8809 59.1152 29.5488 60.3281C30.0938 61.3477 30.1465 61.5586 30.1465 62.9297C30.1465 64.3008 30.0938 64.5117 29.5488 65.5313C28.8809 66.7617 28.3184 67.2891 27 67.9922C26.2441 68.3789 25.875 68.4492 24.6094 68.4492C23.2383 68.4668 23.0273 68.4141 22.0078 67.8691C20.7949 67.2188 20.0918 66.4629 19.4766 65.2148C18.9141 64.0547 18.9316 61.7695 19.5117 60.5566C20.25 59.0449 21.6738 57.8848 23.291 57.4629C24.1523 57.2344 26.0684 57.4277 26.9121 57.8145ZM71.209 57.8145C72.4219 58.3945 73.1777 59.1152 73.8457 60.3281C74.3906 61.3477 74.4434 61.5586 74.4434 62.9297C74.4434 64.3008 74.3906 64.5117 73.8457 65.5313C73.1777 66.7617 72.6152 67.2891 71.2969 67.9922C70.541 68.3789 70.1719 68.4492 68.9062 68.4492C67.5352 68.4668 67.3242 68.4141 66.3047 67.8691C65.0918 67.2188 64.3887 66.4629 63.7734 65.2148C63.2109 64.0547 63.2285 61.7695 63.8086 60.5566C64.5469 59.0449 65.9707 57.8848 67.5879 57.4629C68.4492 57.2344 70.3652 57.4277 71.209 57.8145Z" fill="#FF9F0F"/>
<path d="M23.4668 60.7148C21.6914 61.4883 21.2695 63.8438 22.6582 65.2324C23.8008 66.375 25.418 66.375 26.5606 65.2324C28.7403 63.0527 26.2969 59.4844 23.4668 60.7148Z" fill="#FF9F0F"/>
<path d="M67.7637 60.7148C65.9883 61.4883 65.5664 63.8438 66.9551 65.2324C68.0977 66.375 69.7149 66.375 70.8574 65.2324C73.0371 63.0527 70.5938 59.4844 67.7637 60.7148Z" fill="#FF9F0F"/>
<path d="M7.82227 35.9473C7.54102 36.2109 7.38281 36.5801 7.38281 36.9141C7.38281 37.248 7.54102 37.6172 7.82227 37.8809L8.24414 38.3203H12.4805H16.7168L17.1387 37.8809C17.7188 37.3184 17.7188 36.5098 17.1387 35.9473L16.7168 35.5078H12.4805H8.24414L7.82227 35.9473Z" fill="#FF9F0F"/>
</svg>
