<svg width="17" height="18" viewBox="0 0 17 18" fill="none" xmlns="http://www.w3.org/2000/svg">
<path d="M9.89453 0.0492191C8.93828 0.207422 8.26758 0.551954 7.71641 1.16719C7.25156 1.6875 6.9627 2.2957 6.8 3.09375C6.73691 3.39609 6.73027 3.57891 6.71699 4.99922L6.70371 6.57422H5.39219H4.08398V8.17383V9.77344L5.38887 9.78047L6.69043 9.79102L6.70039 13.8938L6.70703 18H8.26758H9.82812V13.8867V9.77344H11.123C11.8369 9.77344 12.418 9.76992 12.418 9.76289C12.5076 9.12305 12.8031 6.61992 12.7932 6.59883C12.7865 6.58477 12.1158 6.57422 11.3023 6.57422H9.8248L9.83477 5.26289C9.84473 3.9832 9.84805 3.95156 9.92441 3.74766C10.0805 3.33633 10.4059 3.09023 10.8973 3.02344C11.0301 3.00586 11.5381 2.98828 12.0295 2.98828H12.916L12.9094 1.55391L12.8994 0.123047L12.4678 0.0808601C11.7605 0.0140629 10.2266 -0.00703049 9.89453 0.0492191Z" fill="black"/>
</svg>
