<svg width="53" height="53" viewBox="0 0 53 53" fill="none" xmlns="http://www.w3.org/2000/svg">
<g clip-path="url(#clip0_2153_172)">
<path d="M19.1297 0.155264C17.1215 0.538272 15.4031 1.51132 13.9435 3.10546C11.159 6.16952 10.8381 10.9105 13.1775 14.3887C13.7469 15.2375 14.3783 15.9207 14.6578 15.9828C15.2064 16.1277 15.7344 15.693 15.7344 15.1133C15.7344 14.9994 15.517 14.6682 15.2582 14.3783C13.1465 11.9975 12.6703 8.78847 14.016 5.95214C14.9166 4.04745 16.842 2.46366 18.9433 1.89433C19.7715 1.67694 21.7383 1.64589 22.5664 1.85292C23.5394 2.08066 25.1439 2.91913 25.8582 3.57128C27.5248 5.08261 28.3633 6.9873 28.3633 9.22323C28.3633 11.2314 27.7836 12.7635 26.4379 14.3473C25.8996 14.9787 25.8375 15.3928 26.2412 15.7861C26.5931 16.1484 26.9451 16.1174 27.442 15.6619C28.4254 14.7717 29.4398 12.9291 29.8125 11.335C30.0609 10.3205 30.1127 8.51933 29.916 7.55663C29.2431 4.07851 26.7588 1.3664 23.322 0.351944C22.173 0.0206947 20.3304 -0.0724697 19.1297 0.155264Z" fill="#FF9F0F"/>
<path d="M19.6472 5.76572C18.5914 6.15908 17.7425 7.01826 17.3699 8.05342C17.2043 8.49854 17.1939 9.26455 17.1835 16.6763V24.8126L16.4796 24.8644C15.1339 24.9679 13.9435 25.7753 13.3742 26.9968L13.0947 27.5868L13.0636 32.1415C13.0222 36.986 13.074 37.8038 13.5087 39.4394C14.016 41.3026 14.9062 43.0003 16.3037 44.7394C17.2767 45.9401 17.7425 46.7476 18.0841 47.7724C18.3326 48.5177 18.3636 48.7868 18.3947 50.412C18.4154 51.4058 18.4878 52.3478 18.5396 52.4927C18.6017 52.6479 18.7673 52.8136 18.9019 52.886C19.2642 53.0517 35.1849 53.0517 35.5369 52.886C35.9509 52.6997 36.0234 52.3788 36.0234 50.6812C36.0234 48.145 36.4789 46.82 37.9902 44.9464C39.7293 42.7726 40.547 41.1163 41.1578 38.5077C41.313 37.8349 41.3441 36.9964 41.3752 32.2968C41.4166 28.3321 41.3959 26.7069 41.3027 26.2929C41.0439 25.1024 40.3503 24.2329 39.2427 23.7257C38.4664 23.3634 37.2552 23.3427 36.4996 23.6843C36.2201 23.8085 35.982 23.912 35.9716 23.912C35.9509 23.912 35.9095 23.736 35.8681 23.5187C35.5369 21.6968 33.8392 20.4546 31.9345 20.6306C31.1685 20.703 30.1644 21.1067 29.8021 21.4897C29.6779 21.6243 29.5226 21.7382 29.4709 21.7382C29.4191 21.7382 29.1707 21.5519 28.9015 21.3241C27.9802 20.5063 26.2101 20.2579 25.03 20.7858L24.5435 21.0032L24.5125 14.6681L24.4814 8.33291L24.2123 7.76358C23.8085 6.91475 23.2806 6.36612 22.4835 5.98311C21.9039 5.69326 21.6658 5.64151 20.9619 5.61045C20.3718 5.6001 19.9992 5.64151 19.6472 5.76572Z" fill="#FF9F0F"/>
</g>
<defs>
<clipPath id="clip0_2153_172">
<rect width="53" height="53" fill="white"/>
</clipPath>
</defs>
</svg>
