<svg width="31" height="30" viewBox="0 0 31 30" fill="none" xmlns="http://www.w3.org/2000/svg">
<path d="M14.5382 0.0375805C9.85075 0.523909 5.74333 3.07274 3.24723 7.04539C-0.291831 12.6704 0.370279 20.1059 4.84098 25.0044C7.3195 27.7173 10.4132 29.3403 14.1281 29.8677C14.8195 29.9673 17.1222 29.9614 17.8488 29.8677C21.2414 29.3989 24.2765 27.893 26.5851 25.5376C27.3468 24.7641 27.505 24.5825 28.0089 23.9145C29.5089 21.9165 30.4875 19.479 30.8683 16.8188C30.9679 16.1274 30.9679 13.8188 30.8683 13.1274C30.6164 11.352 30.1535 9.84031 29.4211 8.35789C28.6359 6.78758 27.839 5.66844 26.591 4.40867C24.2765 2.06492 21.382 0.60594 18.0539 0.113752C17.3332 0.00828362 15.2531 -0.0385914 14.5382 0.0375805ZM17.3625 5.35789C20.7257 6.00828 23.1457 8.76805 23.3859 12.2192C23.5382 14.3813 21.8625 17.5981 18.2355 22.0923C17.4914 23.0122 16.0265 24.6997 15.9738 24.6997C15.9211 24.6997 14.4562 23.0122 13.7121 22.0923C11.7668 19.6841 10.4367 17.7153 9.55778 15.9399C8.56168 13.9243 8.36247 12.7993 8.70817 11.1352C9.31168 8.22313 11.5968 5.95555 14.5382 5.36375C15.2824 5.21141 16.6007 5.21141 17.3625 5.35789Z" fill="#FF9F0F"/>
<path d="M15.2765 9.79335C13.7941 10.1918 12.8742 11.7328 13.2492 13.1859C13.6417 14.6859 15.1769 15.6176 16.6476 15.2367C18.1476 14.8441 19.0792 13.309 18.6984 11.8383C18.4992 11.0941 17.9015 10.3266 17.257 10.0101C16.6476 9.71132 15.8976 9.62343 15.2765 9.79335Z" fill="#FF9F0F"/>
</svg>
