<svg width="31" height="30" viewBox="0 0 31 30" fill="none" xmlns="http://www.w3.org/2000/svg">
<g clip-path="url(#clip0_31_20)">
<path d="M14.1046 0.064436C11.3038 0.351545 8.75502 1.3535 6.47572 3.05272C5.73744 3.60936 4.14369 5.19725 3.59877 5.92967C2.15151 7.86326 1.21986 9.97264 0.809708 12.2109C0.024552 16.4531 0.997208 20.5898 3.59877 24.0703C4.14369 24.8027 5.73744 26.3906 6.47572 26.9472C8.60854 28.541 10.9757 29.5078 13.6945 29.8945C14.3859 29.9941 16.6886 29.9883 17.4152 29.8945C20.8078 29.4258 23.8429 27.9199 26.1515 25.5644C26.8898 24.8144 27.0656 24.6152 27.5343 23.9941C29.0578 21.9844 30.0538 19.5234 30.4347 16.8457C30.5343 16.1543 30.5343 13.8457 30.4347 13.1543C30.0949 10.7871 29.2628 8.54295 28.0324 6.70897C25.6242 3.11131 21.921 0.77928 17.6203 0.140608C16.8996 0.0351391 14.8195 -0.0117359 14.1046 0.064436ZM16.0851 5.53123C16.214 5.59569 16.3781 5.75975 16.4542 5.89451L16.5949 6.13475V10.3008V14.4726L19.173 16.5351C21.1066 18.082 21.7746 18.6445 21.8507 18.8027C21.9035 18.9199 21.9503 19.1484 21.9503 19.3183C21.9503 19.8808 21.4933 20.332 20.9132 20.332C20.755 20.332 20.5441 20.291 20.4445 20.2441C20.1808 20.1152 14.7785 15.7676 14.6378 15.5683C14.5148 15.4043 14.5148 15.334 14.4972 10.7695L14.4855 6.14061L14.6144 5.91209C14.8195 5.54295 15.2882 5.31444 15.6867 5.37889C15.7863 5.39061 15.9621 5.46092 16.0851 5.53123Z" fill="#FF9F0F"/>
</g>
<defs>
<clipPath id="clip0_31_20">
<rect width="30" height="30" fill="white" transform="translate(0.540192)"/>
</clipPath>
</defs>
</svg>
