<svg width="23" height="23" viewBox="0 0 23 23" fill="none" xmlns="http://www.w3.org/2000/svg">
<g clip-path="url(#clip0_76_141)">
<path d="M0.666736 1.04082C0.709705 1.10957 2.59174 3.84668 4.8476 7.13379C7.10345 10.4209 8.95111 13.1279 8.95111 13.1494C8.95111 13.1752 7.09916 15.3494 4.83041 17.9877C2.56595 20.6217 0.683923 22.8131 0.649548 22.8518C0.593689 22.9205 0.653845 22.9248 1.5347 22.9248H2.48002L6.12806 18.6838C8.1347 16.3549 9.7976 14.4385 9.81908 14.4342C9.84486 14.4256 11.1769 16.3334 12.7796 18.6709L15.6972 22.9248H18.8941C21.9234 22.9248 22.0867 22.9205 22.048 22.8475C22.0265 22.8088 20.0714 19.96 17.7081 16.5225C15.3449 13.085 13.407 10.2619 13.407 10.249C13.407 10.2318 15.2031 8.13496 17.3988 5.58691L21.3863 0.946289L20.4624 0.933397C19.7019 0.924803 19.5257 0.933397 19.4699 0.984961C19.4312 1.01933 17.8628 2.83691 15.9851 5.01973C14.1074 7.20683 12.5562 8.98574 12.539 8.97715C12.5218 8.96426 11.2671 7.15098 9.75033 4.94238L6.99174 0.924805H3.79056H0.593689L0.666736 1.04082ZM12.7624 11.9076C16.4363 17.167 19.4527 21.4854 19.457 21.5111C19.4699 21.5369 18.9499 21.5455 18.0218 21.5412L16.5695 21.5283L9.87494 11.9549C6.19252 6.68691 3.18041 2.36856 3.18041 2.35996C3.18041 2.35137 3.83353 2.34277 4.63275 2.34277L6.0808 2.34707L12.7624 11.9076Z" fill="black"/>
</g>
<defs>
<clipPath id="clip0_76_141">
<rect width="22" height="22" fill="white" transform="translate(0.344482 0.924805)"/>
</clipPath>
</defs>
</svg>
