<svg width="26" height="26" viewBox="0 0 26 26" fill="none" xmlns="http://www.w3.org/2000/svg">
<path d="M18.9114 4.5086C17.7347 4.73321 16.8216 5.23126 16.0306 6.07598C15.4593 6.68634 14.9466 7.54083 14.5804 8.47833C14.4339 8.86407 14.4388 9.01055 14.6194 9.18145C14.7366 9.28887 14.7513 9.28887 15.5862 9.18145C16.2991 9.08868 16.89 9.25958 17.1341 9.63067C17.2513 9.80157 17.2659 9.87481 17.261 10.1971C17.261 10.6463 17.2122 10.7977 16.8509 11.5203C16.1771 12.8729 14.7122 15.1629 14.1898 15.6805C14.0091 15.8611 13.9603 15.8514 13.8382 15.6316C13.4915 15.0164 12.7249 12.2674 11.8753 8.61505C11.2064 5.7293 10.9036 5.11895 9.96613 4.80645C9.59503 4.6795 8.85773 4.6795 8.5257 4.80157C7.43683 5.19708 5.80109 6.31524 3.6673 8.12677C2.00226 9.5379 1.90948 9.62579 1.90948 9.88946C1.90948 10.158 2.48077 10.8904 2.76398 10.9832C2.99835 11.0613 3.11554 11.0125 3.68683 10.5975C4.58038 9.95294 5.25909 9.69903 5.60577 9.87481C5.84503 10.0018 6.09406 10.3191 6.31866 10.7977C6.57745 11.3348 6.75812 11.8816 7.25616 13.6199C7.69073 15.1336 8.37433 17.2039 8.76984 18.2098C9.13116 19.1326 9.79523 20.4949 10.1273 21.0076C10.64 21.7938 11.1185 22.243 11.5872 22.3846C12.2366 22.575 13.472 22.2088 14.5706 21.5008C16.636 20.1629 19.9271 16.242 21.8118 12.8631C23.0032 10.7342 23.4427 9.06915 23.2523 7.43341C23.0716 5.87579 22.4271 4.95782 21.2454 4.57696C20.8353 4.44512 19.4632 4.40606 18.9114 4.5086Z" fill="black"/>
</svg>
