<svg width="26" height="26" viewBox="0 0 26 26" fill="none" xmlns="http://www.w3.org/2000/svg">
<g clip-path="url(#clip0_76_144)">
<path d="M10.8881 4.53114C6.93787 4.60438 4.61854 4.78505 3.891 5.07801C3.23182 5.34657 2.68006 5.8495 2.35291 6.46962C1.92811 7.27528 1.7035 9.04286 1.64979 11.997C1.61072 14.3554 1.73768 16.4989 2.00623 17.8563C2.29432 19.3358 3.09022 20.1806 4.46229 20.4686C5.71229 20.7323 9.02772 20.8886 13.3783 20.8837C17.8217 20.8837 20.9857 20.7372 22.3138 20.4686C22.7484 20.3807 23.3637 20.0731 23.6859 19.7899C24.0228 19.4921 24.3646 18.9794 24.5062 18.5595C24.8969 17.4071 25.1361 14.0526 25.0287 11.2694C24.8822 7.49012 24.5746 6.3036 23.5346 5.51747C23.056 5.15614 22.724 5.0243 21.9818 4.89247C21.0638 4.73622 18.8568 4.5995 16.5277 4.55067C13.8031 4.49696 12.8265 4.49208 10.8881 4.53114ZM14.0375 10.9374C15.683 11.8847 17.0258 12.6806 17.0258 12.705C17.0209 12.744 11.0883 16.1962 11.0248 16.1962C11.0199 16.1962 11.0101 14.6239 11.0101 12.705C11.0101 10.786 11.0199 9.21376 11.0297 9.21376C11.0394 9.21376 12.392 9.99012 14.0375 10.9374Z" fill="#FF9F0F"/>
</g>
<defs>
<clipPath id="clip0_76_144">
<rect width="25" height="25" fill="white" transform="translate(0.853882 0.424805)"/>
</clipPath>
</defs>
</svg>
